<svg width="23" height="21" viewBox="0 0 23 21" fill="none" xmlns="http://www.w3.org/2000/svg">
<path d="M5.36667 1.5822C4.35 1.5822 3.37498 1.97091 2.65609 2.6628C1.9372 3.3547 1.53333 4.29311 1.53333 5.2716V16.3398C1.53333 16.5355 1.45256 16.7232 1.30878 16.8615C1.165 16.9999 0.969999 17.0777 0.766667 17.0777C0.563334 17.0777 0.368329 16.9999 0.224552 16.8615C0.0807737 16.7232 0 16.5355 0 16.3398V5.2716C-1.48517e-08 4.5933 0.138813 3.92164 0.408513 3.29498C0.678213 2.66831 1.07352 2.09891 1.57186 1.61928C2.0702 1.13965 2.66182 0.759192 3.31293 0.499619C3.96405 0.240046 4.66191 0.106445 5.36667 0.106445C6.07143 0.106445 6.76929 0.240046 7.4204 0.499619C8.07152 0.759192 8.66313 1.13965 9.16147 1.61928C9.65981 2.09891 10.0551 2.66831 10.3248 3.29498C10.5945 3.92164 10.7333 4.5933 10.7333 5.2716V17.82C10.733 18.2076 10.6534 18.5913 10.499 18.9493C10.3446 19.3073 10.1185 19.6325 9.8335 19.9063C9.54852 20.1802 9.21028 20.3974 8.8381 20.5454C8.46592 20.6935 8.06709 20.7696 7.66437 20.7693C7.26165 20.769 6.86293 20.6923 6.49098 20.5437C6.11903 20.3951 5.78113 20.1775 5.49658 19.9032C4.9219 19.3493 4.59939 18.5983 4.6 17.8155V5.2716C4.6 5.0759 4.68077 4.88822 4.82455 4.74984C4.96833 4.61146 5.16333 4.53372 5.36667 4.53372C5.57 4.53372 5.765 4.61146 5.90878 4.74984C6.05256 4.88822 6.13333 5.0759 6.13333 5.2716V17.8155C6.13333 18.2069 6.29488 18.5823 6.58244 18.8591C6.86999 19.1358 7.26 19.2913 7.66667 19.2913C8.07333 19.2913 8.46334 19.1358 8.7509 18.8591C9.03845 18.5823 9.2 18.2069 9.2 17.8155V5.2716C9.2 4.29311 8.79613 3.3547 8.07724 2.6628C7.35835 1.97091 6.38333 1.5822 5.36667 1.5822ZM13.8 3.79584C13.8 3.60014 13.8808 3.41246 14.0246 3.27408C14.1683 3.1357 14.3633 3.05796 14.5667 3.05796H22.2333C22.4367 3.05796 22.6317 3.1357 22.7754 3.27408C22.9192 3.41246 23 3.60014 23 3.79584C23 3.99154 22.9192 4.17922 22.7754 4.3176C22.6317 4.45598 22.4367 4.53372 22.2333 4.53372H14.5667C14.3633 4.53372 14.1683 4.45598 14.0246 4.3176C13.8808 4.17922 13.8 3.99154 13.8 3.79584ZM14.5667 7.48523C14.3633 7.48523 14.1683 7.56297 14.0246 7.70135C13.8808 7.83973 13.8 8.02741 13.8 8.22311C13.8 8.41881 13.8808 8.60649 14.0246 8.74487C14.1683 8.88325 14.3633 8.96099 14.5667 8.96099H22.2333C22.4367 8.96099 22.6317 8.88325 22.7754 8.74487C22.9192 8.60649 23 8.41881 23 8.22311C23 8.02741 22.9192 7.83973 22.7754 7.70135C22.6317 7.56297 22.4367 7.48523 22.2333 7.48523H14.5667ZM13.8 12.6504C13.8 12.4547 13.8808 12.267 14.0246 12.1286C14.1683 11.9902 14.3633 11.9125 14.5667 11.9125H22.2333C22.4367 11.9125 22.6317 11.9902 22.7754 12.1286C22.9192 12.267 23 12.4547 23 12.6504C23 12.8461 22.9192 13.0338 22.7754 13.1721C22.6317 13.3105 22.4367 13.3883 22.2333 13.3883H14.5667C14.3633 13.3883 14.1683 13.3105 14.0246 13.1721C13.8808 13.0338 13.8 12.8461 13.8 12.6504ZM14.5667 16.3398C14.3633 16.3398 14.1683 16.4175 14.0246 16.5559C13.8808 16.6943 13.8 16.882 13.8 17.0777C13.8 17.2734 13.8808 17.461 14.0246 17.5994C14.1683 17.7378 14.3633 17.8155 14.5667 17.8155H19.1667C19.37 17.8155 19.565 17.7378 19.7088 17.5994C19.8526 17.461 19.9333 17.2734 19.9333 17.0777C19.9333 16.882 19.8526 16.6943 19.7088 16.5559C19.565 16.4175 19.37 16.3398 19.1667 16.3398H14.5667Z" fill="white"/>
</svg>
