<svg width="20" height="14" viewBox="0 0 20 14" fill="none" xmlns="http://www.w3.org/2000/svg">
<path d="M19.845 12.25V1.75C19.845 0.781667 19.0633 0 18.095 0H1.75C0.781667 0 0 0.781667 0 1.75V12.25C0 13.2183 0.781667 14 1.75 14H18.095C19.0633 14 19.845 13.2183 19.845 12.25ZM18.3167 1.62167C18.7017 2.00667 18.4917 2.40333 18.2817 2.60167L13.545 6.94167L18.095 11.6783C18.235 11.8417 18.3283 12.0983 18.165 12.2733C18.0133 12.46 17.6633 12.4483 17.5117 12.3317L12.4133 7.98L9.91667 10.255L7.43167 7.98L2.33333 12.3317C2.18167 12.4483 1.83167 12.46 1.68 12.2733C1.51667 12.0983 1.61 11.8417 1.75 11.6783L6.3 6.94167L1.56333 2.60167C1.35333 2.40333 1.14333 2.00667 1.52833 1.62167C1.91333 1.23667 2.31 1.42333 2.63667 1.70333L9.91667 7.58333L17.2083 1.70333C17.535 1.42333 17.9317 1.23667 18.3167 1.62167Z" fill="black"/>
</svg>
