<svg width="16" height="17" viewBox="0 0 16 17" fill="none" xmlns="http://www.w3.org/2000/svg">
<path d="M15.9485 4.73034C15.9395 4.05742 15.8135 3.39118 15.5762 2.76144C15.3704 2.23026 15.056 1.74784 14.6532 1.34503C14.2504 0.942215 13.768 0.627855 13.2368 0.422035C12.6151 0.188678 11.9584 0.0624978 11.2945 0.0488672C10.4398 0.010662 10.1688 0 7.99911 0C5.82941 0 5.55131 5.95782e-08 4.7028 0.0488672C4.03924 0.062598 3.38281 0.188777 2.76144 0.422035C2.23017 0.627712 1.74769 0.942021 1.34485 1.34485C0.942021 1.74769 0.627711 2.23017 0.422035 2.76144C0.188211 3.38261 0.062304 4.03919 0.0497557 4.7028C0.0115504 5.55842 0 5.82941 0 7.99911C0 10.1688 -6.6198e-09 10.446 0.0497557 11.2954C0.0630831 11.96 0.188361 12.6157 0.422035 13.2386C0.628057 13.7697 0.9426 14.252 1.34557 14.6546C1.74853 15.0573 2.23107 15.3715 2.76233 15.5771C3.38199 15.8198 4.03854 15.955 4.70369 15.9769C5.55931 16.0151 5.8303 16.0267 8 16.0267C10.1697 16.0267 10.4478 16.0267 11.2963 15.9769C11.9602 15.9638 12.6169 15.8379 13.2386 15.6046C13.7696 15.3986 14.2519 15.0841 14.6547 14.6813C15.0575 14.2786 15.3719 13.7963 15.578 13.2652C15.8116 12.6433 15.9369 11.9876 15.9502 11.3221C15.9884 10.4673 16 10.1964 16 8.02577C15.9982 5.85606 15.9982 5.58063 15.9485 4.73034ZM7.99378 12.1022C5.72457 12.1022 3.88627 10.2639 3.88627 7.99467C3.88627 5.72546 5.72457 3.88716 7.99378 3.88716C9.08316 3.88716 10.1279 4.31992 10.8982 5.09022C11.6685 5.86053 12.1013 6.90529 12.1013 7.99467C12.1013 9.08405 11.6685 10.1288 10.8982 10.8991C10.1279 11.6694 9.08316 12.1022 7.99378 12.1022ZM12.2648 4.69303C12.139 4.69314 12.0144 4.66845 11.8981 4.62036C11.7818 4.57226 11.6762 4.50172 11.5872 4.41275C11.4983 4.32379 11.4277 4.21816 11.3796 4.1019C11.3316 3.98564 11.3069 3.86104 11.307 3.73523C11.307 3.60951 11.3317 3.48502 11.3798 3.36887C11.428 3.25271 11.4985 3.14718 11.5874 3.05828C11.6763 2.96938 11.7818 2.89886 11.898 2.85075C12.0141 2.80264 12.1386 2.77788 12.2643 2.77788C12.39 2.77788 12.5145 2.80264 12.6307 2.85075C12.7468 2.89886 12.8524 2.96938 12.9413 3.05828C13.0302 3.14718 13.1007 3.25271 13.1488 3.36887C13.1969 3.48502 13.2217 3.60951 13.2217 3.73523C13.2217 4.26477 12.7934 4.69303 12.2648 4.69303Z" fill="black"/>
<path d="M7.99383 10.6628C9.46741 10.6628 10.662 9.4682 10.662 7.99462C10.662 6.52105 9.46741 5.32648 7.99383 5.32648C6.52025 5.32648 5.32568 6.52105 5.32568 7.99462C5.32568 9.4682 6.52025 10.6628 7.99383 10.6628Z" fill="black"/>
</svg>
