<svg width="23" height="23" viewBox="0 0 23 23" fill="none" xmlns="http://www.w3.org/2000/svg">
<path d="M11.4969 5.59939C8.23164 5.59939 5.59641 8.23467 5.59641 11.5C5.59641 14.7653 8.23164 17.4006 11.4969 17.4006C14.7622 17.4006 17.3974 14.7653 17.3974 11.5C17.3974 8.23467 14.7622 5.59939 11.4969 5.59939ZM11.4969 15.335C9.38527 15.335 7.66201 13.6117 7.66201 11.5C7.66201 9.38832 9.38527 7.66503 11.4969 7.66503C13.6085 7.66503 15.3318 9.38832 15.3318 11.5C15.3318 13.6117 13.6085 15.335 11.4969 15.335ZM17.6391 3.98255C16.8767 3.98255 16.261 4.59821 16.261 5.3606C16.261 6.12299 16.8767 6.73866 17.6391 6.73866C18.4014 6.73866 19.0171 6.12587 19.0171 5.3606C19.0173 5.17957 18.9818 5.00027 18.9127 4.83297C18.8435 4.66568 18.742 4.51367 18.614 4.38566C18.486 4.25765 18.334 4.15616 18.1667 4.08698C17.9994 4.01781 17.8201 3.98232 17.6391 3.98255ZM22.9987 11.5C22.9987 9.91193 23.0131 8.33824 22.9239 6.75304C22.8347 4.9118 22.4147 3.27769 21.0683 1.93128C19.7191 0.581998 18.0879 0.164841 16.2467 0.0756562C14.6586 -0.013529 13.085 0.00085573 11.4998 0.00085573C9.91174 0.00085573 8.33808 -0.013529 6.75292 0.0756562C4.91171 0.164841 3.27763 0.584875 1.93125 1.93128C0.581988 3.28057 0.164838 4.9118 0.0756548 6.75304C-0.0135288 8.34112 0.000855714 9.9148 0.000855714 11.5C0.000855714 13.0852 -0.0135288 14.6618 0.0756548 16.247C0.164838 18.0882 0.584864 19.7223 1.93125 21.0687C3.28051 22.418 4.91171 22.8352 6.75292 22.9243C8.34096 23.0135 9.91462 22.9991 11.4998 22.9991C13.0878 22.9991 14.6615 23.0135 16.2467 22.9243C18.0879 22.8352 19.7219 22.4151 21.0683 21.0687C22.4176 19.7194 22.8347 18.0882 22.9239 16.247C23.016 14.6618 22.9987 13.0881 22.9987 11.5ZM20.4671 18.2838C20.257 18.8074 20.0039 19.1987 19.5982 19.6015C19.1926 20.0071 18.8042 20.2603 18.2806 20.4703C16.7674 21.0716 13.1741 20.9364 11.4969 20.9364C9.81968 20.9364 6.22357 21.0716 4.71033 20.4732C4.18673 20.2632 3.79547 20.01 3.39271 19.6044C2.98707 19.1987 2.7339 18.8103 2.52389 18.2867C1.9255 16.7706 2.06071 13.1773 2.06071 11.5C2.06071 9.82274 1.9255 6.22656 2.52389 4.71329C2.7339 4.18969 2.98707 3.79842 3.39271 3.39565C3.79835 2.99288 4.18673 2.73683 4.71033 2.52681C6.22357 1.92841 9.81968 2.06362 11.4969 2.06362C13.1741 2.06362 16.7703 1.92841 18.2835 2.52681C18.8071 2.73683 19.1983 2.99 19.6011 3.39565C20.0068 3.8013 20.2599 4.18969 20.4699 4.71329C21.0683 6.22656 20.9331 9.82274 20.9331 11.5C20.9331 13.1773 21.0683 16.7706 20.4671 18.2838Z" fill="black"/>
</svg>
