<svg width="199" height="83" viewBox="0 0 199 83" fill="none" xmlns="http://www.w3.org/2000/svg">
<path d="M198.4 24.8999C198.4 15.9999 191.2 8.8999 182.4 8.8999C173.5 8.8999 166.4 16.0999 166.4 24.8999C166.4 33.7999 173.6 40.8999 182.4 40.8999C191.2 40.9999 198.4 33.7999 198.4 24.8999ZM195 24.8999C195 31.8999 189.4 37.4999 182.4 37.4999C175.4 37.4999 169.8 31.8999 169.8 24.8999C169.8 17.9999 175.4 12.2999 182.4 12.2999C189.3 12.3999 195 17.9999 195 24.8999Z" fill="black"/>
<path d="M49.5 39.9H53.4V23.8C53.4 17.9 59.3 12.9 66.1 12.9C72.6 12.9 74.4 16 74.4 23.1V39.9H78.3V20.6C78.3 12.9 74.7 9.4 66.8 9.4C61.5 9.4 56.2 12.4 53.3 16.5V10H49.5V39.9ZM96.8 39.9H100.7V23.8C100.7 17.9 106.6 12.9 113.4 12.9C119.9 12.9 121.7 16 121.7 23.1V39.9H125.6V20.6C125.6 12.9 122 9.4 114.1 9.4C108.8 9.4 103.5 12.4 100.6 16.5V10H96.8V39.9ZM144.4 39.9H148.3V9.9H144.4V39.9ZM144.4 3.7H148.3V0H144.4V3.7Z" fill="black"/>
<path d="M1.99999 82.3H3.29999V73.4H5.59999V72.3H3.29999V71.3C3.29999 70.2 3.39999 69.9 4.39999 69.9C4.79999 69.9 5.09999 70 5.49999 70.1V68.9C4.89999 68.8 4.39999 68.7 3.99999 68.7C2.19999 68.7 1.89999 69.6 1.89999 71.5V72.3H0.299988V73.4H1.99999V82.3Z" fill="black"/>
<path d="M32.1 24.8999C32.1 15.9999 24.9 8.8999 16.1 8.8999C7.29998 8.8999 0.0999756 16.0999 0.0999756 24.8999C0.0999756 33.7999 7.29998 40.8999 16.1 40.8999C23.1 40.8999 28.9 36.3999 31.1 30.2999H27.4C25.4 34.4999 21.1 37.4999 16.1 37.4999C9.39998 37.4999 3.99998 32.2999 3.59998 25.6999H28.6H31H32C32 25.4999 32.1 25.1999 32.1 24.8999ZM28.4 22.5999H3.69998C4.79998 16.7999 9.89997 12.3999 16 12.3999C22.2 12.3999 27.3 16.7999 28.4 22.5999Z" fill="black"/>
<path d="M198.4 77.3C198.4 74.3 196 72 193.1 72C190.2 72 187.8 74.4 187.8 77.3C187.8 80.3 190.2 82.6 193.1 82.6C195.4 82.6 197.4 81.1 198.1 79.1H196.9C196.2 80.5 194.8 81.5 193.1 81.5C190.9 81.5 189.1 79.8 188.9 77.6H197.2H198H198.3C198.4 77.5 198.4 77.4 198.4 77.3ZM197.2 76.5H189C189.4 74.6 191.1 73.1 193.1 73.1C195.1 73.1 196.8 74.6 197.2 76.5Z" fill="black"/>
<path d="M198.4 55.8H0.299988V57.2001H198.4V55.8Z" fill="black"/>
<path d="M166.4 82.3V75.9C166.9 74.2 168 73.4 169.5 73.4C169.9 73.4 170.2 73.5 170.7 73.6V72.3C170.3 72.1 169.8 72 169.4 72C168.1 72 167 72.7 166.4 74V72.3H165V82.3H166.4Z" fill="black"/>
<path d="M148 72.4H146.7V78C146.7 80 145 81.3 142.8 81.3C140.6 81.3 140 80.3 140 77.9V72.3H138.7V78.8C138.7 81.4 139.9 82.5 142.5 82.5C144.3 82.5 145.7 81.8 146.7 80.5V82.3H148V72.4Z" fill="black"/>
<path d="M119.4 79.7V73.5H121.7V72.4H119.4V69.5H118.1V72.4H116.4V73.5H118.1V79.9C118.1 81.7 118.5 82.6 120 82.6C120.5 82.6 121 82.5 121.6 82.4V81.3C121.2 81.4 120.8 81.4 120.5 81.4C119.4 81.3 119.4 80.8 119.4 79.7Z" fill="black"/>
<path d="M98 82.3H99.3V72.3H98V82.3ZM98 70.3H99.3V68.7H98V70.3Z" fill="black"/>
<path d="M71.7 82.3H73V76.6C73 74.6 74.7 73.3 76.9 73.3C79.1 73.3 79.7 74.3 79.7 76.7V82.3H81V75.9C81 73.3 79.8 72.2 77.2 72.2C75.4 72.2 74 72.9 73 74.2V72.4H71.7V82.3Z" fill="black"/>
<path d="M50.3 82.3V75.9C50.8 74.2 51.9 73.4 53.4 73.4C53.8 73.4 54.1 73.5 54.6 73.6V72.3C54.1 72.1 53.7 72 53.3 72C52 72 50.9 72.7 50.3 74V72.3H49V82.3H50.3Z" fill="black"/>
<path d="M31.9 72.4H30.6V78C30.6 80 28.9 81.3 26.7 81.3C24.5 81.3 23.9 80.3 23.9 77.9V72.3H22.6V78.8C22.6 81.4 23.8 82.5 26.4 82.5C28.2 82.5 29.6 81.8 30.6 80.5V82.3H31.9V72.4Z" fill="black"/>
</svg>
